<?xml version="1.0" encoding="UTF-8"?>
<svg width="168px" height="163px" viewBox="0 0 168 163" version="1.1" xmlns="http://www.w3.org/2000/svg" xmlns:xlink="http://www.w3.org/1999/xlink">
    <!-- Generator: Sketch 64 (93537) - https://sketch.com -->
    <title>Group 11</title>
    <desc>Created with Sketch.</desc>
    <defs>
        <linearGradient x1="10.2049334%" y1="17.1106896%" x2="82.0289473%" y2="84.2783923%" id="linearGradient-1">
            <stop stop-color="#E60000" offset="0%"></stop>
            <stop stop-color="#BD0000" offset="100%"></stop>
        </linearGradient>
        <ellipse id="path-2" cx="73.5150081" cy="72.670008" rx="73.092508" ry="72.670008"></ellipse>
        <filter x="-7.5%" y="-7.6%" width="115.0%" height="115.1%" filterUnits="objectBoundingBox" id="filter-3">
            <feGaussianBlur stdDeviation="7" in="SourceAlpha" result="shadowBlurInner1"></feGaussianBlur>
            <feOffset dx="-8" dy="-8" in="shadowBlurInner1" result="shadowOffsetInner1"></feOffset>
            <feComposite in="shadowOffsetInner1" in2="SourceAlpha" operator="arithmetic" k2="-1" k3="1" result="shadowInnerInner1"></feComposite>
            <feColorMatrix values="0 0 0 0 0   0 0 0 0 0   0 0 0 0 0  0 0 0 0.1 0" type="matrix" in="shadowInnerInner1"></feColorMatrix>
        </filter>
        <filter x="-18.7%" y="-18.9%" width="137.4%" height="137.9%" filterUnits="objectBoundingBox" id="filter-4">
            <feGaussianBlur stdDeviation="7.94300085" in="SourceGraphic"></feGaussianBlur>
        </filter>
        <linearGradient x1="13.8570154%" y1="19.5896644%" x2="88.4388605%" y2="78.9369233%" id="linearGradient-5">
            <stop stop-color="#FFFFFF" offset="0%"></stop>
            <stop stop-color="#EBEBEB" offset="100%"></stop>
        </linearGradient>
        <path d="M15.868931,5.78355619 C18.0589536,5.78601911 19.8337042,7.56314555 19.8361638,9.75609984 L19.8361638,9.75609984 L19.8361638,11.7423717 L20.827972,11.7423717 C21.3757325,11.7423717 21.8197802,12.1870138 21.8197802,12.7355076 L21.8197802,12.7355076 L21.8197802,16.7080512 C21.8197802,17.256545 21.3757325,17.7011871 20.827972,17.7011871 L20.827972,17.7011871 L19.8361638,17.7011871 L19.8361638,19.687459 C19.8337042,21.8804132 18.0589536,23.6575397 15.868931,23.6600026 L15.868931,23.6600026 L0.99180819,23.6600026 C0.444047652,23.6600026 0,23.2153605 0,22.6668667 L0,22.6668667 L0,6.7766921 C0,6.22819829 0.444047652,5.78355619 0.99180819,5.78355619 L0.99180819,5.78355619 Z M15.868931,7.76982802 L1.98361638,7.76982802 L1.98361638,21.6737308 L15.868931,21.6737308 C16.963914,21.6724311 17.8512494,20.7839078 17.8525474,19.687459 L17.8525474,19.687459 L17.8525474,17.7011871 L16.8607392,17.7011871 C15.2174576,17.7011871 13.8853147,16.3672609 13.8853147,14.7217794 C13.8853147,13.0762979 15.2174576,11.7423717 16.8607392,11.7423717 L16.8607392,11.7423717 L17.8525474,11.7423717 L17.8525474,9.75609984 C17.8512494,8.65965101 16.963914,7.77112773 15.868931,7.76982802 L15.868931,7.76982802 Z M8.76207271,9.72688996 L8.76207271,10.7258678 L10.775772,10.7258678 L10.775772,12.7238236 L7.25179826,12.7238236 C6.97376441,12.7238236 6.74837344,12.9474524 6.74837344,13.2233126 C6.74837344,13.4991727 6.97376441,13.7228015 7.25179826,13.7228015 L7.25179826,13.7228015 L8.25864789,13.7228015 C9.55182821,13.721512 10.635595,14.6926803 10.765558,15.969255 C10.895521,17.2458297 10.0293907,18.4124174 8.76207271,18.6677421 L8.76207271,18.6677421 L8.76207271,19.7166688 L6.74837344,19.7166688 L6.74837344,18.7176909 L4.73467417,18.7176909 L4.73467417,16.7197352 L8.25864789,16.7197352 C8.53668174,16.7197352 8.76207271,16.4961064 8.76207271,16.2202462 C8.76207271,15.9443861 8.53668174,15.7207573 8.25864789,15.7207573 L8.25864789,15.7207573 L7.25179826,15.7207573 C5.95861795,15.7220468 4.87485119,14.7508785 4.74488818,13.4743038 C4.61492517,12.1977291 5.48105544,11.0311414 6.74837344,10.7758167 L6.74837344,10.7758167 L6.74837344,9.72688996 L8.76207271,9.72688996 Z M19.8361638,13.7286435 L16.8607392,13.7286435 C16.3129787,13.7286435 15.868931,14.1732856 15.868931,14.7217794 C15.868931,15.2702732 16.3129787,15.7149153 16.8607392,15.7149153 L16.8607392,15.7149153 L19.8361638,15.7149153 L19.8361638,13.7286435 Z M17.6135575,0 C20.9513917,0.00367943452 23.6563232,2.70861094 23.6600026,6.04644511 L23.6600026,6.04644511 L21.6445209,6.04644511 C21.6420218,3.82124149 19.8387611,2.01798084 17.6135575,2.0154817 L17.6135575,2.0154817 Z M17.8764464,2.8917781 C19.4727606,2.89363721 20.7663654,4.18724195 20.7682245,5.78355619 L20.7682245,5.78355619 L18.8403724,5.78355619 C18.8397748,5.25144228 18.4085603,4.82022778 17.8764464,4.81963016 L17.8764464,4.81963016 Z" id="path-6"></path>
        <linearGradient x1="0%" y1="22.930181%" x2="70.369384%" y2="90.7908429%" id="linearGradient-8">
            <stop stop-color="#BD0000" offset="0%"></stop>
            <stop stop-color="#E60000" offset="100%"></stop>
        </linearGradient>
    </defs>
    <g id="Payment" stroke="none" stroke-width="1" fill="none" fill-rule="evenodd">
        <g id="User" transform="translate(-636.000000, -530.000000)">
            <g id="Group-15" transform="translate(380.000000, 171.000000)">
                <g id="Group-11" transform="translate(267.000000, 364.000000)">
                    <g id="spinner">
                        <g id="Oval">
                            <use fill="url(#linearGradient-1)" fill-rule="evenodd" xlink:href="#path-2"></use>
                            <use fill="black" fill-opacity="1" filter="url(#filter-3)" xlink:href="#path-2"></use>
                        </g>
                        <path d="M72.670008,139.425015 C107.904398,139.425015 136.467515,111.240218 136.467515,76.4725084 C136.467515,53.1588248 123.624256,32.8051138 104.53839,21.9246009 C95.1614932,16.5789987 84.2777792,13.5200015 72.670008,13.5200015 C37.4356178,13.5200015 8.87250098,41.7047989 8.87250098,76.4725084 C8.87250098,111.240218 37.4356178,139.425015 72.670008,139.425015 Z" id="Oval-Copy" fill="#000000" filter="url(#filter-4)"></path>
                        <path d="M74.3600082,135.200015 C109.594398,135.200015 138.157515,107.015217 138.157515,72.247508 C138.157515,48.9338243 125.314256,28.5801134 106.22839,17.6996004 C96.8514934,12.3539982 85.9677794,9.29500102 74.3600082,9.29500102 C39.125618,9.29500102 10.5625012,37.4797984 10.5625012,72.247508 C10.5625012,107.015217 39.125618,135.200015 74.3600082,135.200015 Z" id="Oval-Copy" fill="url(#linearGradient-5)"></path>
                    </g>
                    <g id="Group-10" transform="translate(28.730003, 56.615006)">
                        <text id="Generate-Code" font-family="Poppins-Regular, Poppins" font-size="13.5200015" font-weight="normal" line-spacing="14.3650016" fill="#E60000">
                            <tspan x="28.8922432" y="14">Generate</tspan>
                            <tspan x="99.939851" y="15.033833" font-family="Poppins-Bold, Poppins" font-weight="bold"></tspan>
                            <tspan x="28.7300032" y="28.0134683" font-family="Poppins-SemiBold, Poppins" font-weight="500">Code</tspan>
                        </text>
                        <g id="Group-7">
                            <mask id="mask-7" fill="white">
                                <use xlink:href="#path-6"></use>
                            </mask>
                            <use id="Combined-Shape" fill="#000000" fill-rule="nonzero" xlink:href="#path-6"></use>
                            <rect id="Rectangle" fill="url(#linearGradient-8)" mask="url(#mask-7)" x="0" y="0" width="26.1950029" height="23.6600026"></rect>
                        </g>
                    </g>
                </g>
            </g>
        </g>
    </g>
</svg>