<?xml version="1.0" encoding="UTF-8"?>
<svg width="18px" height="20px" viewBox="0 0 18 20" version="1.1" xmlns="http://www.w3.org/2000/svg" xmlns:xlink="http://www.w3.org/1999/xlink">
    <title>96193D6B-25FD-4FBD-B244-F11488581DC0</title>
    <g id="Home" stroke="none" stroke-width="1" fill="none" fill-rule="evenodd">
        <g id="Code-Generator" transform="translate(-19.000000, -172.000000)" fill="#E60000" fill-rule="nonzero">
            <g id="Navigation" transform="translate(0.000000, 61.000000)">
                <g transform="translate(0.000000, 96.000000)" id="mobile-payment">
                    <g transform="translate(19.000000, 14.902913)">
                        <path d="M13.0204051,2.89471661 C12.878156,2.89471661 12.7377156,2.90220636 12.5984421,2.91406022 L12.5984421,1.65377655 C12.5984421,0.795403659 11.9075595,0.0970873786 11.058324,0.0970873786 L1.54011818,0.0970873786 C0.690882688,0.0970873786 0,0.795403659 0,1.65377655 L0,18.5403982 C0,19.3987711 0.690882688,20.0970874 1.54011818,20.0970874 L11.058324,20.0970874 C11.9075595,20.0970874 12.5984421,19.3987711 12.5984421,18.5403982 L12.5984421,12.942191 C12.7385325,12.9542218 12.8792062,12.9610039 13.0204051,12.9610039 C15.7661401,12.9610039 18,10.7031676 18,7.92788973 C18,5.15261181 15.7661401,2.89471661 13.0204051,2.89471661 Z M5.01757855,1.58613288 L7.24519532,1.58613288 C7.51907449,1.58613288 7.74114184,1.81058958 7.74114184,2.08741557 C7.74114184,2.36424157 7.51907449,2.58869827 7.24519532,2.58869827 L5.01757855,2.58869827 C4.74369937,2.58869827 4.52163202,2.36424157 4.52163202,2.08741557 C4.52163202,1.81058958 4.74364103,1.58613288 5.01757855,1.58613288 Z M6.7951676,18.0655361 C6.7951676,18.3423621 6.57310025,18.5668188 6.29922107,18.5668188 C6.0253419,18.5668188 5.80327454,18.3423621 5.80327454,18.0655361 L5.80327454,17.5641944 L6.7951676,17.5641944 L6.7951676,18.0655361 Z M11.6066074,16.561629 L0.991893057,16.561629 L0.991893057,4.00308213 C0.991893057,3.69753558 1.23782419,3.44895834 1.54011818,3.44895834 L10.754688,3.44895834 C9.14537068,4.28380044 8.04092693,5.97719235 8.04092693,7.92788973 C8.04092693,8.52412126 8.14315027,9.10631688 8.34508802,9.66144323 L7.52916846,12.9131756 C7.47864026,13.1146912 7.53675353,13.3281787 7.68215338,13.475143 C7.79295367,13.5871354 7.94191267,13.6478791 8.09478089,13.6478791 C8.14250845,13.6478791 8.19070279,13.6419227 8.23819696,13.629774 L11.6066074,12.7663882 L11.6066074,16.561629 L11.6066074,16.561629 Z M13.0204051,11.7815152 C12.6147792,11.7815152 12.2134126,11.7164074 11.8275662,11.5879611 C11.7221921,11.5528713 11.6091747,11.54892 11.5017002,11.5764611 L8.90118995,12.2429901 L9.52217335,9.76824593 C9.55303873,9.64516629 9.54381996,9.51530458 9.49580066,9.39800443 C9.30471538,8.93074999 9.20785994,8.4361314 9.20785994,7.92788973 C9.20785994,5.80298187 10.9181753,4.0742053 13.0204051,4.0742053 C15.1226933,4.0742053 16.833067,5.8029229 16.833067,7.92788973 C16.833067,10.0527976 15.1226933,11.7815152 13.0204051,11.7815152 Z" id="Shape"></path>
                    </g>
                </g>
            </g>
        </g>
    </g>
</svg>