<?xml version="1.0" encoding="UTF-8"?>
<svg width="16px" height="21px" viewBox="0 0 16 21" version="1.1" xmlns="http://www.w3.org/2000/svg" xmlns:xlink="http://www.w3.org/1999/xlink">
    <title>F160A3FF-6642-45BF-9358-B43DFE02EBDC</title>
    <g id="Home" stroke="none" stroke-width="1" fill="none" fill-rule="evenodd">
        <g id="Code-Generator" transform="translate(-19.000000, -222.000000)" fill="#4A4D4E" fill-rule="nonzero">
            <g id="Navigation" transform="translate(0.000000, 61.000000)">
                <g id="Navigation-Copy" transform="translate(0.000000, 146.000000)">
                    <g id="ticket-(3)" transform="translate(19.000000, 15.000000)">
                        <path d="M0,0 L0,21 L16,21 L16,0 L0,0 Z M13,15 L13,16 L3,16 L3,15 L13,15 Z M5,8.14285714 L5,4.28567143 L7.250025,4.28567143 L7.250025,3 L8.749975,3 L8.749975,4.28567143 L11,4.28567143 L11,5.57134286 L6.49995,5.57134286 L6.49995,6.85718571 L11,6.85718571 L11,10.7143286 L8.749975,10.7143286 L8.749975,12 L7.250025,12 L7.250025,10.7143286 L5,10.7143286 L5,9.42865714 L9.50005,9.42865714 L9.50005,8.14285714 L5,8.14285714 Z M8,17 L8,18 L3,18 L3,17 L8,17 Z" id="Shape"></path>
                    </g>
                </g>
            </g>
        </g>
    </g>
</svg>